<mxfile host="Electron" agent="Mozilla/5.0 (X11; Linux x86_64) AppleWebKit/537.36 (KHTML, like Gecko) draw.io/24.7.17 Chrome/128.0.6613.36 Electron/32.0.1 Safari/537.36" version="24.7.17">
  <diagram name="Page-1" id="xKv6j_wKPZ9WB2m-PmId">
    <mxGraphModel dx="637" dy="378" grid="1" gridSize="10" guides="1" tooltips="1" connect="1" arrows="1" fold="1" page="1" pageScale="1" pageWidth="827" pageHeight="1169" math="0" shadow="0">
      <root>
        <mxCell id="0" />
        <mxCell id="1" parent="0" />
        <mxCell id="Y2BZjUqlmDZL55UpbtIv-1" value="Mitarbeiter" style="shape=umlActor;html=1;verticalLabelPosition=bottom;verticalAlign=top;align=center;" vertex="1" parent="1">
          <mxGeometry x="40" y="195" width="30" height="60" as="geometry" />
        </mxCell>
        <mxCell id="Y2BZjUqlmDZL55UpbtIv-2" value="Mietstation Stammdaten einpflegen" style="ellipse;whiteSpace=wrap;html=1;" vertex="1" parent="1">
          <mxGeometry x="210" y="80" width="140" height="70" as="geometry" />
        </mxCell>
        <mxCell id="Y2BZjUqlmDZL55UpbtIv-4" value="Fahrzeugbestand überwachen und optimieren" style="ellipse;whiteSpace=wrap;html=1;" vertex="1" parent="1">
          <mxGeometry x="200" y="260" width="140" height="70" as="geometry" />
        </mxCell>
        <mxCell id="Y2BZjUqlmDZL55UpbtIv-5" value="Fahrzeugüberführung durchführen" style="ellipse;whiteSpace=wrap;html=1;" vertex="1" parent="1">
          <mxGeometry x="414" y="260" width="140" height="70" as="geometry" />
        </mxCell>
        <mxCell id="Y2BZjUqlmDZL55UpbtIv-10" value="" style="edgeStyle=none;html=1;endArrow=none;verticalAlign=bottom;rounded=0;exitX=0.5;exitY=0.5;exitDx=0;exitDy=0;exitPerimeter=0;entryX=0;entryY=0.5;entryDx=0;entryDy=0;" edge="1" parent="1" source="Y2BZjUqlmDZL55UpbtIv-1" target="Y2BZjUqlmDZL55UpbtIv-4">
          <mxGeometry width="160" relative="1" as="geometry">
            <mxPoint x="330" y="340" as="sourcePoint" />
            <mxPoint x="490" y="340" as="targetPoint" />
          </mxGeometry>
        </mxCell>
        <mxCell id="Y2BZjUqlmDZL55UpbtIv-11" value="" style="edgeStyle=none;html=1;endArrow=none;verticalAlign=bottom;rounded=0;exitX=0.5;exitY=0.5;exitDx=0;exitDy=0;exitPerimeter=0;entryX=0;entryY=0.5;entryDx=0;entryDy=0;" edge="1" parent="1" source="Y2BZjUqlmDZL55UpbtIv-1" target="Y2BZjUqlmDZL55UpbtIv-2">
          <mxGeometry width="160" relative="1" as="geometry">
            <mxPoint x="330" y="340" as="sourcePoint" />
            <mxPoint x="490" y="340" as="targetPoint" />
          </mxGeometry>
        </mxCell>
        <mxCell id="Y2BZjUqlmDZL55UpbtIv-15" value="Stellplätze PKW überprüfen" style="ellipse;whiteSpace=wrap;html=1;" vertex="1" parent="1">
          <mxGeometry x="414" y="50" width="140" height="70" as="geometry" />
        </mxCell>
        <mxCell id="Y2BZjUqlmDZL55UpbtIv-21" value="&amp;lt;&amp;lt;extend&amp;gt;&amp;gt;" style="edgeStyle=none;html=1;startArrow=open;endArrow=none;startSize=12;verticalAlign=bottom;dashed=1;labelBackgroundColor=none;rounded=0;exitX=1;exitY=0.5;exitDx=0;exitDy=0;entryX=0;entryY=0.5;entryDx=0;entryDy=0;" edge="1" parent="1" source="Y2BZjUqlmDZL55UpbtIv-4" target="Y2BZjUqlmDZL55UpbtIv-5">
          <mxGeometry width="160" relative="1" as="geometry">
            <mxPoint x="330" y="240" as="sourcePoint" />
            <mxPoint x="490" y="240" as="targetPoint" />
          </mxGeometry>
        </mxCell>
        <mxCell id="Y2BZjUqlmDZL55UpbtIv-22" value="&amp;lt;&amp;lt;include&amp;gt;&amp;gt;" style="edgeStyle=none;html=1;endArrow=open;verticalAlign=bottom;dashed=1;labelBackgroundColor=none;rounded=0;exitX=1;exitY=0;exitDx=0;exitDy=0;entryX=0;entryY=0.5;entryDx=0;entryDy=0;" edge="1" parent="1" source="Y2BZjUqlmDZL55UpbtIv-2" target="Y2BZjUqlmDZL55UpbtIv-15">
          <mxGeometry width="160" relative="1" as="geometry">
            <mxPoint x="160" y="200" as="sourcePoint" />
            <mxPoint x="320" y="200" as="targetPoint" />
          </mxGeometry>
        </mxCell>
        <mxCell id="Y2BZjUqlmDZL55UpbtIv-26" value="geschäftlich relevantes Umfeld festhalten" style="ellipse;whiteSpace=wrap;html=1;" vertex="1" parent="1">
          <mxGeometry x="210" y="10" width="140" height="70" as="geometry" />
        </mxCell>
        <mxCell id="Y2BZjUqlmDZL55UpbtIv-27" value="Typisiernug nach Ansprüchen" style="ellipse;whiteSpace=wrap;html=1;" vertex="1" parent="1">
          <mxGeometry x="414" y="120" width="140" height="70" as="geometry" />
        </mxCell>
        <mxCell id="Y2BZjUqlmDZL55UpbtIv-28" value="" style="edgeStyle=none;html=1;endArrow=none;verticalAlign=bottom;rounded=0;exitX=0.5;exitY=0.5;exitDx=0;exitDy=0;exitPerimeter=0;entryX=0;entryY=0.5;entryDx=0;entryDy=0;" edge="1" parent="1" source="Y2BZjUqlmDZL55UpbtIv-1" target="Y2BZjUqlmDZL55UpbtIv-26">
          <mxGeometry width="160" relative="1" as="geometry">
            <mxPoint x="230" y="160" as="sourcePoint" />
            <mxPoint x="390" y="160" as="targetPoint" />
          </mxGeometry>
        </mxCell>
        <mxCell id="Y2BZjUqlmDZL55UpbtIv-29" value="&amp;lt;&amp;lt;include&amp;gt;&amp;gt;" style="edgeStyle=none;html=1;endArrow=open;verticalAlign=bottom;dashed=1;labelBackgroundColor=none;rounded=0;exitX=1;exitY=0.5;exitDx=0;exitDy=0;entryX=0;entryY=0.5;entryDx=0;entryDy=0;" edge="1" parent="1" source="Y2BZjUqlmDZL55UpbtIv-2" target="Y2BZjUqlmDZL55UpbtIv-27">
          <mxGeometry width="160" relative="1" as="geometry">
            <mxPoint x="360" y="114.71000000000001" as="sourcePoint" />
            <mxPoint x="520" y="114.71000000000001" as="targetPoint" />
          </mxGeometry>
        </mxCell>
      </root>
    </mxGraphModel>
  </diagram>
</mxfile>
